<svg width="90" height="210" viewBox="0 0 90 210" fill="none" xmlns="http://www.w3.org/2000/svg">
<path d="M12.627 210V42.422H51.0938C57.7588 42.422 63.2812 43.4376 67.6611 45.4689C72.1045 47.5001 75.5957 50.5153 78.1348 54.5143C80.6738 58.5133 82.4829 63.4645 83.562 69.3678C84.6411 75.2076 85.1807 81.9679 85.1807 89.6486V93.1715C85.1807 103.963 84.2285 113.167 82.3242 120.784C80.4834 128.338 77.1509 134.082 72.3267 138.018C67.5024 141.953 60.7104 143.921 51.9507 143.921H38.1445V210H12.627ZM38.1445 122.879H46.9043C50.6494 122.879 53.4424 121.926 55.2832 120.022C57.124 118.118 58.3301 114.976 58.9014 110.596C59.5361 106.152 59.8535 100.249 59.8535 92.8859V89.6486C59.79 80.5714 58.9966 73.7159 57.4731 69.0822C55.9497 64.3849 52.4902 62.0363 47.0947 62.0363H38.1445V122.879Z" fill="black"/>
<path d="M27.2988 0L44.012 27.796H10.5855L27.2988 0Z" fill="black"/>
<path d="M44.0807 0.00012207L60.7939 27.7962H27.3675L44.0807 0.00012207Z" fill="black"/>
<path d="M61.7014 0.00012207L78.4146 27.7962H44.9881L61.7014 0.00012207Z" fill="black"/>
</svg>
