<svg width="112" height="33" viewBox="0 0 112 33" fill="none" xmlns="http://www.w3.org/2000/svg">
<path d="M3.85075 16H0.298752V0.759999L6.70675 0.639999C8.14675 0.607999 9.24275 0.943999 9.99475 1.648C10.7628 2.352 11.1468 3.336 11.1468 4.6V6.904C11.1468 7.656 10.9788 8.344 10.6428 8.968C10.3068 9.592 9.80275 10.088 9.13075 10.456C8.47475 10.808 7.66675 10.984 6.70675 10.984H3.37075L3.85075 10.432V16ZM3.85075 3.16V8.368L3.37075 7.888H7.21075C7.43475 7.888 7.54675 7.776 7.54675 7.552V4.072C7.54675 3.848 7.43475 3.736 7.21075 3.736H3.37075L3.85075 3.16ZM25.4211 16H21.8931L21.1731 12.376L21.4611 12.616H16.0611L16.3491 12.376L15.5331 16H12.2211L15.3411 3.52C15.5331 2.768 15.7491 2.184 15.9891 1.768C16.2291 1.336 16.5651 1.032 16.9971 0.855999C17.4291 0.679999 18.0131 0.607999 18.7491 0.639999L22.2051 0.759999L25.4211 16ZM18.2451 4.144L16.9491 9.808L16.7571 9.568H20.8611L20.6691 9.808L19.4931 3.808H18.5811C18.4691 3.808 18.3891 3.832 18.3411 3.88C18.3091 3.928 18.2771 4.016 18.2451 4.144ZM33.1311 16H29.5791V3.376L30.0591 3.856H26.1231V0.759999H36.5871V3.856H32.6511L33.1311 3.376V16ZM42.9379 16H39.3859V0.759999H42.9379V16ZM55.9664 10.6V0.759999H59.0144V16H56.4944L49.7984 6.112H50.3024V16H47.2544V0.759999H49.7504L56.4464 10.6H55.9664ZM70.669 3.712H66.781C66.557 3.712 66.445 3.824 66.445 4.048V12.712C66.445 12.936 66.557 13.048 66.781 13.048H70.669C70.893 13.048 71.005 12.936 71.005 12.712V4.048C71.005 3.824 70.893 3.712 70.669 3.712ZM62.845 12.4V4.36C62.845 3.096 63.205 2.144 63.925 1.504C64.645 0.847999 65.725 0.519999 67.165 0.519999H70.285C71.725 0.519999 72.805 0.847999 73.525 1.504C74.245 2.144 74.605 3.096 74.605 4.36V12.4C74.605 13.664 74.245 14.624 73.525 15.28C72.805 15.92 71.725 16.24 70.285 16.24H67.165C65.725 16.24 64.645 15.92 63.925 15.28C63.205 14.624 62.845 13.664 62.845 12.4ZM82.4676 16H78.9156V0.759999H82.4676V16ZM90.6961 16H87.1441V0.759999L93.6241 0.639999C95.0641 0.607999 96.1601 0.943999 96.9121 1.648C97.6801 2.352 98.0641 3.336 98.0641 4.6V6.448C98.0641 7.392 97.8001 8.232 97.2721 8.968C96.7441 9.688 95.9681 10.168 94.9441 10.408V9.712C95.5361 9.824 96.0001 10.04 96.3361 10.36C96.6881 10.664 96.9761 11.136 97.2001 11.776L98.6881 16H95.1361L93.4801 10.936C93.4321 10.808 93.3841 10.712 93.3361 10.648C93.3041 10.584 93.2161 10.552 93.0721 10.552H90.2161L90.6961 10V16ZM90.6961 3.16V7.96L90.2161 7.48H94.1281C94.3521 7.48 94.4641 7.368 94.4641 7.144V4.072C94.4641 3.848 94.3521 3.736 94.1281 3.736H90.2161L90.6961 3.16ZM111.271 16H101.935V0.759999H111.151V3.856H105.007L105.487 3.376V7.24L105.007 6.76H110.671V9.808H105.007L105.487 9.328V13.384L105.007 12.904H111.271V16Z" fill="white"/>
<path d="M55.5273 30.52V32H51.1073C50.2273 32 49.5807 31.8267 49.1673 31.48C48.754 31.12 48.5473 30.5333 48.5473 29.72V21.58C48.5473 20.7533 48.754 20.1667 49.1673 19.82C49.5807 19.4733 50.2273 19.3 51.1073 19.3H55.5273V20.78H50.4273C50.294 20.78 50.2273 20.84 50.2273 20.96V30.34C50.2273 30.46 50.294 30.52 50.4273 30.52H55.5273ZM61.3646 24.048H62.4686C63.098 24.048 63.5513 24.1653 63.8286 24.4C64.106 24.6347 64.2446 25.0613 64.2446 25.68V32H62.9806V25.232C62.9806 25.136 62.9273 25.088 62.8206 25.088H60.2126C60.1166 25.088 60.0686 25.136 60.0686 25.232L60.0846 32H58.8206L58.8046 21.2H60.0686V25.088L59.9086 25.52C59.9086 25.0187 60.026 24.6507 60.2606 24.416C60.4953 24.1707 60.8633 24.048 61.3646 24.048ZM69.9308 32.112H68.8908C68.2828 32.112 67.8348 31.9947 67.5468 31.76C67.2694 31.5147 67.1308 31.088 67.1308 30.48V29.168C67.1308 28.5173 67.2748 28.0747 67.5628 27.84C67.8508 27.5947 68.3308 27.472 69.0028 27.472H71.3868V28.4H68.5388C68.4321 28.4 68.3788 28.4533 68.3788 28.56V30.928C68.3788 31.024 68.4321 31.072 68.5388 31.072H71.2268V25.36C71.2268 25.2533 71.1788 25.2 71.0828 25.2L67.5628 25.216V24.16L70.6028 24.144C71.2748 24.144 71.7601 24.272 72.0588 24.528C72.3574 24.7733 72.5068 25.232 72.5068 25.904V32H71.3868L71.2268 31.072L71.3228 30.64C71.3228 31.1413 71.2161 31.5147 71.0028 31.76C70.8001 31.9947 70.4428 32.112 69.9308 32.112ZM78.331 24.048H79.211V25.136H77.179C77.0723 25.136 77.019 25.184 77.019 25.28L77.035 32H75.771L75.755 24.16H76.875L77.019 25.088L76.875 25.52C76.875 25.0187 76.987 24.6507 77.211 24.416C77.4457 24.1707 77.819 24.048 78.331 24.048ZM83.1228 32H81.8588V21.2H83.1228V32ZM91.7149 32.08H88.5149C87.8215 32.08 87.3149 31.952 86.9949 31.696C86.6749 31.4293 86.5149 30.9653 86.5149 30.304V25.776C86.5149 25.1147 86.6535 24.6613 86.9309 24.416C87.2082 24.1707 87.6775 24.048 88.3389 24.048H90.0189C90.7015 24.048 91.1869 24.1707 91.4749 24.416C91.7629 24.6613 91.9069 25.1147 91.9069 25.776V28.928H87.6349V27.984H90.6429V25.232C90.6429 25.136 90.5895 25.088 90.4829 25.088H87.9389C87.8429 25.088 87.7949 25.136 87.7949 25.232V30.88C87.7949 30.976 87.8429 31.024 87.9389 31.024H91.7149V32.08ZM97.6154 24.048H98.4954V25.136H96.4634C96.3567 25.136 96.3034 25.184 96.3034 25.28L96.3194 32H95.0554L95.0394 24.16H96.1594L96.3034 25.088L96.1594 25.52C96.1594 25.0187 96.2714 24.6507 96.4954 24.416C96.73 24.1707 97.1034 24.048 97.6154 24.048ZM104.874 25.104H102.154C102.047 25.104 101.994 25.1573 101.994 25.264V30.896C101.994 31.0027 102.047 31.056 102.154 31.056H104.874C104.97 31.056 105.018 31.0027 105.018 30.896V25.264C105.018 25.1573 104.97 25.104 104.874 25.104ZM100.73 30.336V25.824C100.73 25.1627 100.885 24.704 101.194 24.448C101.514 24.1813 102.021 24.048 102.714 24.048H104.314C105.018 24.048 105.525 24.1813 105.834 24.448C106.143 24.704 106.298 25.1627 106.298 25.824V30.336C106.298 30.9867 106.143 31.4453 105.834 31.712C105.525 31.9787 105.018 32.112 104.314 32.112H102.714C102.021 32.112 101.514 31.9787 101.194 31.712C100.885 31.4453 100.73 30.9867 100.73 30.336ZM110.96 32H109.696V24.16H110.96V32ZM110.96 22.592H109.696V21.36H110.96V22.592Z" fill="#82F7FF"/>
</svg>
