<svg width="417" height="111" viewBox="0 0 417 111" fill="none" xmlns="http://www.w3.org/2000/svg">
<rect width="417" height="111" fill="#F5F5F5"/>
<g clip-path="url(#clip0_0_1)">
<rect width="1440" height="6941" transform="translate(-497 -38)" fill="white"/>
<rect x="-497" y="-38" width="1440" height="230" fill="#001932"/>
<path d="M13.4403 59H0.120313V1.85L24.1503 1.4C29.5503 1.28 33.6603 2.54 36.4803 5.18C39.3603 7.82 40.8003 11.51 40.8003 16.25V24.89C40.8003 27.71 40.1703 30.29 38.9103 32.63C37.6503 34.97 35.7603 36.83 33.2403 38.21C30.7803 39.53 27.7503 40.19 24.1503 40.19H11.6403L13.4403 38.12V59ZM13.4403 10.85V30.38L11.6403 28.58H26.0403C26.8803 28.58 27.3003 28.16 27.3003 27.32V14.27C27.3003 13.43 26.8803 13.01 26.0403 13.01H11.6403L13.4403 10.85ZM94.3292 59H81.0992L78.3992 45.41L79.4792 46.31H59.2292L60.3092 45.41L57.2492 59H44.8292L56.5292 12.2C57.2492 9.38 58.0592 7.19 58.9592 5.63C59.8592 4.01 61.1192 2.87 62.7392 2.21C64.3592 1.55 66.5492 1.28 69.3092 1.4L82.2692 1.85L94.3292 59ZM67.4192 14.54L62.5592 35.78L61.8392 34.88H77.2292L76.5092 35.78L72.0992 13.28H68.6792C68.2592 13.28 67.9592 13.37 67.7792 13.55C67.6592 13.73 67.5392 14.06 67.4192 14.54ZM123.242 59H109.922V11.66L111.722 13.46H96.9617V1.85H136.202V13.46H121.442L123.242 11.66V59ZM160.017 59H146.697V1.85H160.017V59ZM208.874 38.75V1.85H220.304V59H210.854L185.744 21.92H187.634V59H176.204V1.85H185.564L210.674 38.75H208.874ZM264.009 12.92H249.429C248.589 12.92 248.169 13.34 248.169 14.18V46.67C248.169 47.51 248.589 47.93 249.429 47.93H264.009C264.849 47.93 265.269 47.51 265.269 46.67V14.18C265.269 13.34 264.849 12.92 264.009 12.92ZM234.669 45.5V15.35C234.669 10.61 236.019 7.04 238.719 4.64C241.419 2.18 245.469 0.949996 250.869 0.949996H262.569C267.969 0.949996 272.019 2.18 274.719 4.64C277.419 7.04 278.769 10.61 278.769 15.35V45.5C278.769 50.24 277.419 53.84 274.719 56.3C272.019 58.7 267.969 59.9 262.569 59.9H250.869C245.469 59.9 241.419 58.7 238.719 56.3C236.019 53.84 234.669 50.24 234.669 45.5ZM308.254 59H294.934V1.85H308.254V59ZM339.11 59H325.79V1.85L350.09 1.4C355.49 1.28 359.6 2.54 362.42 5.18C365.3 7.82 366.74 11.51 366.74 16.25V23.18C366.74 26.72 365.75 29.87 363.77 32.63C361.79 35.33 358.88 37.13 355.04 38.03V35.42C357.26 35.84 359 36.65 360.26 37.85C361.58 38.99 362.66 40.76 363.5 43.16L369.08 59H355.76L349.55 40.01C349.37 39.53 349.19 39.17 349.01 38.93C348.89 38.69 348.56 38.57 348.02 38.57H337.31L339.11 36.5V59ZM339.11 10.85V28.85L337.31 27.05H351.98C352.82 27.05 353.24 26.63 353.24 25.79V14.27C353.24 13.43 352.82 13.01 351.98 13.01H337.31L339.11 10.85ZM416.266 59H381.256V1.85H415.816V13.46H392.776L394.576 11.66V26.15L392.776 24.35H414.016V35.78H392.776L394.576 33.98V49.19L392.776 47.39H416.266V59Z" fill="white"/>
<path d="M249.099 105.264V110H234.955C232.139 110 230.07 109.445 228.747 108.336C227.425 107.184 226.763 105.307 226.763 102.704V76.656C226.763 74.0107 227.425 72.1333 228.747 71.024C230.07 69.9147 232.139 69.36 234.955 69.36H249.099V74.096H232.779C232.353 74.096 232.139 74.288 232.139 74.672V104.688C232.139 105.072 232.353 105.264 232.779 105.264H249.099ZM267.094 86.144H270.406C272.294 86.144 273.654 86.496 274.486 87.2C275.318 87.904 275.734 89.184 275.734 91.04V110H271.942V89.696C271.942 89.408 271.782 89.264 271.462 89.264H263.638C263.35 89.264 263.206 89.408 263.206 89.696L263.254 110H259.462L259.414 77.6H263.206V89.264L262.726 90.56C262.726 89.056 263.078 87.952 263.782 87.248C264.486 86.512 265.59 86.144 267.094 86.144ZM292.792 110.336H289.672C287.848 110.336 286.504 109.984 285.64 109.28C284.808 108.544 284.392 107.264 284.392 105.44V101.504C284.392 99.552 284.824 98.224 285.688 97.52C286.552 96.784 287.992 96.416 290.008 96.416H297.16V99.2H288.616C288.296 99.2 288.136 99.36 288.136 99.68V106.784C288.136 107.072 288.296 107.216 288.616 107.216H296.68V90.08C296.68 89.76 296.536 89.6 296.248 89.6L285.688 89.648V86.48L294.808 86.432C296.824 86.432 298.28 86.816 299.176 87.584C300.072 88.32 300.52 89.696 300.52 91.712V110H297.16L296.68 107.216L296.968 105.92C296.968 107.424 296.648 108.544 296.008 109.28C295.4 109.984 294.328 110.336 292.792 110.336ZM317.993 86.144H320.633V89.408H314.537C314.217 89.408 314.057 89.552 314.057 89.84L314.105 110H310.313L310.265 86.48H313.625L314.057 89.264L313.625 90.56C313.625 89.056 313.961 87.952 314.633 87.248C315.337 86.512 316.457 86.144 317.993 86.144ZM332.368 110H328.576V77.6H332.368V110ZM358.145 110.24H348.545C346.465 110.24 344.945 109.856 343.985 109.088C343.025 108.288 342.545 106.896 342.545 104.912V91.328C342.545 89.344 342.961 87.984 343.793 87.248C344.625 86.512 346.033 86.144 348.017 86.144H353.057C355.105 86.144 356.561 86.512 357.425 87.248C358.289 87.984 358.721 89.344 358.721 91.328V100.784H345.905V97.952H354.929V89.696C354.929 89.408 354.769 89.264 354.449 89.264H346.817C346.529 89.264 346.385 89.408 346.385 89.696V106.64C346.385 106.928 346.529 107.072 346.817 107.072H358.145V110.24ZM375.846 86.144H378.486V89.408H372.39C372.07 89.408 371.91 89.552 371.91 89.84L371.958 110H368.166L368.118 86.48H371.478L371.91 89.264L371.478 90.56C371.478 89.056 371.814 87.952 372.486 87.248C373.19 86.512 374.31 86.144 375.846 86.144ZM397.622 89.312H389.462C389.142 89.312 388.982 89.472 388.982 89.792V106.688C388.982 107.008 389.142 107.168 389.462 107.168H397.622C397.91 107.168 398.054 107.008 398.054 106.688V89.792C398.054 89.472 397.91 89.312 397.622 89.312ZM385.19 105.008V91.472C385.19 89.488 385.654 88.112 386.582 87.344C387.542 86.544 389.062 86.144 391.142 86.144H395.942C398.054 86.144 399.574 86.544 400.502 87.344C401.43 88.112 401.894 89.488 401.894 91.472V105.008C401.894 106.96 401.43 108.336 400.502 109.136C399.574 109.936 398.054 110.336 395.942 110.336H391.142C389.062 110.336 387.542 109.936 386.582 109.136C385.654 108.336 385.19 106.96 385.19 105.008ZM415.881 110H412.089V86.48H415.881V110ZM415.881 81.776H412.089V78.08H415.881V81.776Z" fill="#82F7FF"/>
</g>
<defs>
<clipPath id="clip0_0_1">
<rect width="1440" height="6941" fill="white" transform="translate(-497 -38)"/>
</clipPath>
</defs>
</svg>
